# xmcd
#
# Track frame offsets: 
#        150
#        21252
#        39758
#        57499
#        78423
#        95505
#        116819
#        134513
#        153626
#        175287
#
# Disc length: 2566 seconds
#
# Revision: 0
# Processed by: cddbd v1.5.1PL2 Copyright (c) Steve Scherf et al.
# Submitted via: ExactAudioCopy v0.95a5
#
DISCID=840a040a
DTITLE=品冠 - 门没锁
DYEAR=2004
DGENRE=Pop
TTITLE0=爱情不能作比较
TTITLE1=明明很爱你
TTITLE2=门没锁
TTITLE3=爱值得
TTITLE4=出站
TTITLE5=我的嗓音
TTITLE6=爱你的那一天
TTITLE7=单身公寓
TTITLE8=如何不想你
TTITLE9=Annie's Song
EXTD=
EXTT0=
EXTT1=
EXTT2=
EXTT3=
EXTT4=
EXTT5=
EXTT6=
EXTT7=
EXTT8=
EXTT9=
PLAYORDER=
